<?xml version="1.0" encoding="UTF-8"?>
<svg id="Capa_1" data-name="Capa 1" xmlns="http://www.w3.org/2000/svg" viewBox="0 0 500 500">
  <defs>
    <style>
      .cls-1 {
        stroke-width: 18px;
      }

      .cls-1, .cls-2 {
        fill: none;
      }

      .cls-1, .cls-2, .cls-3 {
        stroke: #000;
        stroke-miterlimit: 10;
      }

      .cls-2 {
        stroke-width: 14px;
      }

      .cls-3 {
        font-family: MyriadPro-Regular, 'Myriad Pro';
        font-size: 71.35px;
        stroke-width: 4px;
      }
    </style>
  </defs>
  <g>
    <path d="m252.93,223.32c-4.48.42-8.95.91-13.43,1.2-.79.05-2.26-.6-2.36-1.13-.63-3.19-1.51-6.49-1.24-9.66.46-5.37,3.44-8.35,8.88-8.76,5.56-.42,11.26-.57,16.75.21,6.07.86,8.56,4.54,8.44,10.71-.04,2.22-.68,4.42-1.04,6.63-.29,1.78-1.24,2.25-3.04,2.03-4.29-.53-8.62-.83-12.96-1.22Z"/>
    <path d="m252.93,319.01c2.27.39,4.66.48,6.78,1.27,1.34.5,2.86,1.85,3.31,3.15,2.61,7.71-3.74,15.56-10.34,15.32-7.53-.28-12.48-8.87-9.95-15.65,1.05-2.81,3.7-3.37,6.29-3.7,1.27-.16,2.57-.03,3.85-.03.02-.12.03-.24.05-.36Z"/>
    <path d="m212.91,179.25c.14-5.66,4.31-9.53,9.26-9.45,4.79.08,8.96,4.11,8.73,8.75-.06,1.16-.93,2.73-1.89,3.26-.97.53-2.86.48-3.75-.15-2.33-1.65-4.2-1.68-6.56-.03-.94.65-2.86.6-3.97.09-1-.46-1.5-2-1.82-2.47Z"/>
    <path d="m283.82,169.8c4.73-.01,8.82,3.62,8.93,8.29.03,1.23-.72,3.05-1.68,3.58-1.07.59-3.1.52-4.15-.16-2.22-1.43-3.92-1.47-6.16-.02-1.04.68-3.07.78-4.15.2-.96-.52-1.73-2.34-1.7-3.57.13-4.72,4.15-8.31,8.89-8.33Z"/>
    <path d="m214.79,294.18c.46-4.75,4.49-8.61,9.09-8.57,4.6.03,8.57,3.94,8.55,8.4-.01,3.06-3.03,4.91-5.53,3.16-2.16-1.52-3.88-1.65-6.09-.1-.89.62-2.72.62-3.75.12-1-.49-1.53-1.96-2.27-3Z"/>
    <path d="m282.04,285.6c4.51.04,8.54,3.78,8.46,8.15-.02,1.17-.76,2.85-1.67,3.34-1.03.56-2.95.52-3.94-.11-2.05-1.3-3.61-1.4-5.71-.08-1.05.66-3.09.73-4.13.13-.93-.54-1.59-2.4-1.53-3.64.19-4.41,4.12-7.84,8.54-7.8Z"/>
    <path d="m280.01,247.27c6.23-3.64,14.51-7.68,24.71-10.69,14.21-4.2,26.69-4.8,35.46-4.51-1.55,8.29-3.95,17.92-7.74,28.37-3.42,9.45-7.27,17.64-10.99,24.51-2.03-4.01-4.06-8.02-6.09-12.02,2.39-3.37,5.65-8.89,7.41-16.36,1.09-4.66,1.3-8.79,1.2-11.99-3.82.22-8.13.71-12.81,1.68-7.66,1.58-14.08,3.97-19.1,6.28-4.02-1.75-8.04-3.5-12.06-5.25Z"/>
    <path d="m226.44,247.44c-6.23-3.64-14.51-7.68-24.71-10.69-14.21-4.2-26.69-4.8-35.46-4.51,1.55,8.29,3.95,17.92,7.74,28.37,3.42,9.45,7.27,17.64,10.99,24.51,2.03-4.01,4.06-8.02,6.09-12.02-2.39-3.37-5.65-8.89-7.41-16.36-1.09-4.66-1.3-8.79-1.2-11.99,3.82.22,8.13.71,12.81,1.68,7.66,1.58,14.08,3.97,19.1,6.28,4.02-1.75,8.04-3.5,12.06-5.25Z"/>
    <path d="m225.42,125.05c-7.18-.72-19.98-1.06-34.81,3.87-15.06,5.01-25.21,13.13-30.53,18.05-.83,5.17-1.37,12.61.23,21.28,2.71,14.75,10.11,24.85,14.18,29.66,7.85-4.46,20.49-12.97,31.59-27.72,13.46-17.88,17.77-35.78,19.34-45.13Z"/>
    <path d="m283.74,125.18c7.18-.72,19.98-1.06,34.81,3.87,15.06,5.01,25.21,13.13,30.53,18.05.83,5.17,1.37,12.61-.23,21.28-2.71,14.75-10.11,24.85-14.18,29.66-7.85-4.46-20.49-12.97-31.59-27.72-13.46-17.88-17.77-35.78-19.34-45.13Z"/>
  </g>
  <text class="cls-3" transform="translate(100.13 376.16) rotate(43.85)"><tspan x="0" y="0">A</tspan></text>
  <text class="cls-3" transform="translate(137.28 410.38) rotate(29.74)"><tspan x="0" y="0">d</tspan></text>
  <text class="cls-3" transform="translate(179.21 433.24) rotate(15.97)"><tspan x="0" y="0">o</tspan></text>
  <text class="cls-3" transform="translate(224.33 445.27) rotate(2.21)"><tspan x="0" y="0">p</tspan></text>
  <text class="cls-3" transform="translate(270.83 445.7) rotate(-8.73)"><tspan x="0" y="0">t</tspan></text>
  <text class="cls-3" transform="translate(299.61 441.27) rotate(-18.81)"><tspan x="0" y="0">a</tspan></text>
  <text class="cls-3" transform="translate(338.45 427.45) rotate(-31.34)"><tspan x="0" y="0">P</tspan></text>
  <text class="cls-3" transform="translate(374.64 404.68) rotate(-43.38)"><tspan x="0" y="0">e</tspan></text>
  <text class="cls-3" transform="translate(403.89 375.64) rotate(-53.54)"><tspan x="0" y="0">t</tspan></text>
  <circle class="cls-1" cx="253" cy="259" r="216"/>
  <circle class="cls-2" cx="252.03" cy="232.42" r="143.6"/>
</svg>